<?xml version="1.0" encoding="UTF-8" standalone="no"?>
<!-- Created with Inkscape (http://www.inkscape.org/) -->

<svg
   version="1.1"
   id="svg615"
   width="32.003429"
   height="32"
   viewBox="0 0 32.003429 32"
   sodipodi:docname="Millennium Falcon.png"
   xmlns:inkscape="http://www.inkscape.org/namespaces/inkscape"
   xmlns:sodipodi="http://sodipodi.sourceforge.net/DTD/sodipodi-0.dtd"
   xmlns="http://www.w3.org/2000/svg"
   xmlns:svg="http://www.w3.org/2000/svg">
  <defs
     id="defs619" />
  <sodipodi:namedview
     id="namedview617"
     pagecolor="#ffffff"
     bordercolor="#000000"
     borderopacity="0.25"
     inkscape:showpageshadow="2"
     inkscape:pageopacity="0.0"
     inkscape:pagecheckerboard="true"
     inkscape:deskcolor="#d1d1d1"
     showgrid="false" />
  <g
     inkscape:groupmode="layer"
     inkscape:label="Image"
     id="g621"
     transform="translate(-6.0719565,-6.2169721)">
    <path
       style="fill:#C0C0C0;stroke-width:0.0640161"
       d="M 23.627049,38.147494 C 23.070067,38.088667 22.1907,37.933612 21.810198,37.827131 L 21.581037,37.763005 21.43642,36.59471 c -0.07954,-0.642561 -0.151388,-1.175221 -0.159663,-1.183689 -0.0083,-0.0085 -0.156954,0.192353 -0.330398,0.446269 -0.413952,0.606006 -0.754208,0.822422 -1.361345,0.865861 -0.582245,0.04167 -0.766948,-0.02738 -1.670804,-0.624591 -1.025867,-0.677818 -1.284209,-1.038398 -1.284209,-1.792425 0,-0.45236 0.08401,-0.680139 0.449172,-1.217866 0.146562,-0.215821 0.249687,-0.409191 0.229168,-0.42971 -0.02052,-0.02052 -0.563236,0.02808 -1.206037,0.108006 -0.6428,0.07992 -1.224232,0.149343 -1.292072,0.154268 -0.08361,0.0061 -0.213499,-0.119174 -0.403198,-0.388776 -0.15392,-0.218755 -2.09228,-3.569285 -4.307466,-7.445625 l -4.0276115,-7.047892 0.74285,-1.114759 c 0.4498295,-0.675037 0.7708766,-1.09808 0.8139016,-1.072475 0.039078,0.02326 1.4431526,0.956551 3.1201649,2.073986 l 3.049113,2.031701 0.333631,-0.563633 c 0.183497,-0.309999 0.515786,-0.804776 0.738418,-1.099505 0.222633,-0.29473 0.38562,-0.553996 0.362195,-0.576147 -0.02342,-0.02215 -1.396531,-0.940262 -3.051346,-2.040248 -1.654815,-1.099986 -3.0354036,-2.024582 -3.0679745,-2.054657 -0.035041,-0.03235 0.2431098,-0.508374 0.6812665,-1.165895 l 0.740487,-1.111212 0.951142,0.121302 c 7.840981,0.99998 9.314838,1.174967 9.20275,1.092615 -0.06686,-0.04913 -0.359226,-0.219028 -0.649699,-0.377562 -0.290473,-0.158535 -0.528133,-0.313318 -0.528133,-0.343963 0,-0.05689 2.725728,-4.6603054 2.820574,-4.7636034 0.04514,-0.049158 5.120278,3.0365424 5.367216,3.2632814 0.05753,0.05283 0.245797,1.017254 0.524323,2.685907 0.239011,1.431919 0.445446,2.61437 0.458744,2.627668 0.0133,0.0133 0.110384,-0.09781 0.215746,-0.24692 0.362274,-0.51267 1.174267,-0.796944 1.796206,-0.628844 0.292541,0.07907 1.523734,0.858038 1.866074,1.180652 0.369122,0.347854 0.488152,0.64594 0.489406,1.225609 9.68e-4,0.446414 -0.02182,0.551146 -0.177634,0.816204 -0.117272,0.199503 -0.150295,0.304256 -0.09602,0.304598 0.0455,2.56e-4 0.493064,-0.04865 0.994598,-0.108739 1.05155,-0.125996 0.867924,-0.20878 1.446996,0.652354 1.027349,1.527766 1.749473,3.462644 1.961902,5.256779 0.110329,0.931806 0.09297,0.891982 0.513183,1.177343 l 0.383348,0.260327 -5.12e-4,0.653779 c -0.0019,2.375699 -0.768127,4.964982 -2.049938,6.927354 -1.393471,2.133317 -3.38741,3.805602 -5.721203,4.798285 l -0.697893,0.29685 -0.437626,-0.291001 C 28.927506,37.76592 28.687341,37.63497 28.634498,37.63497 c -0.05285,0 -0.305251,0.05713 -0.560907,0.126941 -1.243153,0.339495 -3.241855,0.512813 -4.446538,0.385583 z m 6.763205,-3.4941 c 0.353614,-0.34207 0.08959,-0.923404 -0.419384,-0.923404 -0.597872,0 -0.749969,0.819136 -0.196532,1.058443 0.242427,0.104826 0.404744,0.06924 0.615916,-0.135039 z m -1.666129,-2.30544 c 0.403263,-0.339323 0.175496,-0.986559 -0.347177,-0.986559 -0.522673,0 -0.750439,0.647236 -0.347176,0.986559 0.108327,0.09115 0.264558,0.165731 0.347176,0.165731 0.08262,0 0.238849,-0.07458 0.347177,-0.165731 z m 4.328906,-0.695577 c 0.35509,-0.35509 0.101187,-0.931142 -0.410414,-0.931142 -0.204242,0 -0.285374,0.03813 -0.419015,0.19696 -0.09115,0.108327 -0.16573,0.264557 -0.16573,0.347176 0,0.08262 0.07458,0.23885 0.16573,0.347177 0.218078,0.259171 0.592126,0.277132 0.829429,0.03983 z m -7.613348,-1.384346 c 1.904965,-0.264955 3.386462,-1.612064 3.871572,-3.520379 0.138784,-0.545946 0.109574,-1.595616 -0.06125,-2.201082 -0.462289,-1.638513 -1.687342,-2.826002 -3.348855,-3.246163 -0.72128,-0.182396 -1.717922,-0.143236 -2.453437,0.0964 -1.392715,0.453755 -2.461343,1.522961 -2.953236,2.954829 -0.157775,0.459275 -0.175981,0.601319 -0.176405,1.376345 -3.84e-4,0.758226 0.01967,0.92441 0.163741,1.355006 0.557987,1.667671 1.89477,2.852195 3.55828,3.152994 0.62698,0.113372 0.788347,0.117067 1.399591,0.03205 z m -1.16993,-1.149736 c -1.73175,-0.308046 -2.945458,-1.870843 -2.821841,-3.633459 0.152864,-2.179626 2.340948,-3.659852 4.429584,-2.996587 0.588813,0.186983 1.007616,0.44847 1.423777,0.888961 1.614498,1.708882 1.132721,4.402418 -0.972839,5.438973 -0.582793,0.286907 -1.438343,0.412458 -2.058681,0.302112 z m 6.573458,1.057053 c 0.337734,-0.359501 0.09306,-0.926483 -0.399809,-0.926483 -0.330962,0 -0.562077,0.223738 -0.562077,0.544136 0,0.495617 0.622875,0.743208 0.961886,0.382347 z m 3.919516,-2.077759 c 0.321895,-0.253203 0.272391,-0.746916 -0.09388,-0.936324 -0.56293,-0.291102 -1.098314,0.44601 -0.649751,0.894574 0.206033,0.206033 0.512883,0.223259 0.743636,0.04175 z M 31.99878,27.46134 c 0.127712,-0.127712 0.187124,-0.251226 0.187124,-0.389021 0,-0.137795 -0.05942,-0.261309 -0.187124,-0.38902 -0.23405,-0.23405 -0.505176,-0.246264 -0.752088,-0.03387 -0.142418,0.122501 -0.17816,0.207342 -0.17816,0.422898 0,0.528004 0.557941,0.761329 0.930248,0.389021 z M 18.146462,10.94019 c -0.80533,-0.895721 -0.95029,-2.0566776 -0.396918,-3.1788317 0.616352,-1.249865 2.164401,-1.8682045 3.44015,-1.3741041 l 0.174594,0.06762 -1.412291,2.3547263 c -0.77676,1.2950995 -1.43454,2.3779605 -1.461733,2.4063565 -0.02719,0.02839 -0.181904,-0.0957 -0.343802,-0.275767 z"
       id="path625" />
  </g>
</svg>
